<svg width="800" height="800" viewBox="0 0 24 24" fill="none" xmlns="http://www.w3.org/2000/svg"><path opacity=".8" fill-rule="evenodd" clip-rule="evenodd" d="M12 1.25a.75.75 0 0 1 .75.75v2a.75.75 0 0 1-1.5 0V2a.75.75 0 0 1 .75-.75ZM1.25 12a.75.75 0 0 1 .75-.75h2a.75.75 0 0 1 0 1.5H2a.75.75 0 0 1-.75-.75Zm18 0a.75.75 0 0 1 .75-.75h2a.75.75 0 0 1 0 1.5h-2a.75.75 0 0 1-.75-.75ZM12 19.25a.75.75 0 0 1 .75.75v2a.75.75 0 0 1-1.5 0v-2a.75.75 0 0 1 .75-.75Z" fill="#1C274C"/><g opacity=".5" fill="#1C274C"><path d="M5.47 5.47a.75.75 0 0 1 1.06 0l.344.343a.75.75 0 0 1-1.061 1.06L5.47 6.53a.75.75 0 0 1 0-1.06ZM18.53 5.47a.75.75 0 0 1 0 1.06l-.343.344a.75.75 0 0 1-1.06-1.061l.343-.343a.75.75 0 0 1 1.06 0ZM6.873 17.127a.75.75 0 0 1 0 1.06l-.343.343a.75.75 0 0 1-1.06-1.06l.343-.343a.75.75 0 0 1 1.06 0ZM17.127 17.127a.75.75 0 0 1 1.06 0l.343.343a.75.75 0 1 1-1.06 1.06l-.343-.343a.75.75 0 0 1 0-1.06Z"/></g><path d="M7 11.06c0 2.542 2.01 3.897 3.48 5.11.52.427 1.02.83 1.52.83s1-.403 1.52-.83c1.47-1.213 3.48-2.568 3.48-5.11 0-2.543-2.75-4.346-5-1.902-2.25-2.444-5-.64-5 1.902Z" fill="#1C274C"/></svg>